<svg width="891" height="1018" viewBox="0 0 891 1018" fill="none" xmlns="http://www.w3.org/2000/svg" role="img" aria-label="FIT">
<path d="M450.25 30.0645L455.142 32.5107L455.249 32.5645V42.5605L460.097 44.9854H505.075L505.109 44.999L550.095 62.4932L550.219 62.542V82.4668H714.778V65.0264L714.921 64.9863L759.906 52.4902L759.932 52.4834H844.958L844.983 52.4902L889.97 64.9863L890.111 65.0264V82.8623H890.107V606.448L890.106 606.458C887.076 635.098 885.019 650.831 878.395 675.938C867.942 716.507 861.231 738.719 843.26 774.365L843.257 774.372L843.086 774.278L843.256 774.372C822.611 811.862 810.383 830.997 784.7 861.218L784.694 861.225C742.342 906.6 717.15 929.136 667.586 959.646L667.574 959.653L667.483 959.48L667.573 959.653C623.971 982.444 598.126 992.213 550.469 1005.97L550.457 1005.97C510.237 1014.81 487.848 1016.42 447.986 1017.55H447.981C416.548 1017.68 399.139 1016.53 368.929 1011.76L368.924 1011.76C307.24 1000.22 275.07 989.105 222.529 959.65L222.519 959.645V959.644C157.806 917.671 124.912 889.606 76.1348 826.485L76.127 826.476L76.1279 826.475C50.0136 787.81 33.0506 755.844 21.582 720.573C10.114 685.304 4.14296 646.738 0.000976562 594.878L0 594.87V82.4668H0.00390625V65.0244L0.148438 64.9863L47.6338 52.4902L47.6582 52.4834H125.183L175.19 64.9854L175.337 65.0225V82.4668H339.896V62.542L340.021 62.4932L385.006 44.999L385.04 44.9854H430.019L434.866 42.5605V32.5645L434.974 32.5107L439.865 30.0645V0H450.25V30.0645ZM64.9795 587.509L64.9805 587.517C68.5175 632.306 73.6164 665.615 83.4102 696.078C93.2044 726.542 107.691 754.151 129.991 787.545V787.546L129.999 787.556C171.653 842.072 199.745 866.313 255.007 902.563L255.114 902.401L255.007 902.564L255.018 902.57C299.887 928.01 327.361 937.612 380.038 947.578L380.044 947.579C405.843 951.701 420.711 952.691 447.554 952.58H447.559C481.599 951.605 500.72 950.21 535.067 942.578V942.579L535.08 942.575C575.777 930.696 597.85 922.258 635.085 902.573L635.097 902.566C677.424 876.214 698.939 856.75 735.105 817.561L735.111 817.554C757.045 791.452 767.487 774.925 785.117 742.545L785.12 742.539C800.468 711.751 806.198 692.565 815.124 657.527L815.125 657.528C820.782 635.843 822.539 622.253 825.127 597.518L825.128 597.508V144.946H64.9795V587.509ZM485.239 807.634H404.876V349.89H485.239V807.634ZM210.146 262.418C219.811 263.166 225.246 264.098 233.498 266.851L235.188 267.427L235.201 267.431V267.432C245.001 271.645 250.555 274.45 259.377 281.737L260.241 282.456L260.243 282.458C270.013 290.913 274.637 296.257 280.283 307.51L280.289 307.521L280.109 307.598L280.289 307.522C285.74 320.515 288.073 328.164 290.299 342.557L290.301 342.571V402.373H340.285V462.742H290.301V752.651H212.437V462.742H159.953V399.874H212.437V342.612C211.275 338.532 210.284 336.332 207.492 332.726C204.233 329.962 201.986 329.008 197.584 327.778C197.054 327.63 195.996 327.514 194.528 327.43C193.068 327.345 191.221 327.293 189.127 327.264C184.939 327.206 179.769 327.244 174.735 327.321C169.703 327.399 164.808 327.515 161.171 327.611C159.353 327.66 157.848 327.703 156.799 327.734C156.275 327.75 155.864 327.763 155.584 327.771C155.444 327.776 155.337 327.779 155.265 327.781C155.229 327.782 155.202 327.784 155.184 327.784C155.175 327.784 155.167 327.785 155.162 327.785H155.155L154.955 327.792V262.417H210.14L210.146 262.418ZM680.178 402.373H735.16V462.742H680.178V647.479L680.271 648.958C680.766 656.142 681.774 660.432 685.143 667.371C688.41 670.737 691.161 672.879 694.191 674.347C697.227 675.817 700.556 676.618 704.992 677.286H725.164V750.146L724.975 750.151L724.97 749.958L724.974 750.151L724.973 750.152H724.948C724.931 750.153 724.904 750.153 724.869 750.154C724.8 750.156 724.696 750.16 724.561 750.163C724.29 750.17 723.891 750.18 723.382 750.192C722.362 750.217 720.896 750.252 719.111 750.29C715.542 750.367 710.697 750.458 705.592 750.52C695.39 750.642 684.127 750.642 679.961 750.15C671.63 749.167 661.046 745.138 654.918 742.64C648.797 740.144 641.967 737.772 634.884 732.62C628.175 727.741 624.701 724.763 619.842 717.577L619.835 717.566C615.704 710.557 613.235 706.115 609.825 697.546C605.839 687.528 604.401 679.64 602.316 667.517L602.313 667.5V462.742H557.328V402.373H602.313V262.417H680.178V402.373ZM485.239 297.795H404.876V222.43H485.239V297.795Z" fill="#ffffff"/>
</svg>
